# xmcd CD database file
#
# Track frame offsets:
#	150
#	15882
#	29910
#	42479
#	55173
#	68640
#	79642
#	94909
#	109303
#	122288
#	135699
#	149039
#	162655
#	175329
#	185751
#	201475
#	215167
#	228792
#	242743
#	257207
#	271257
#	284525
#	299335
#
# Disc length: 4170 seconds
#
# Revision: 0
# Processed by: cddbd v1.4PL0 Copyright (c) Steve Scherf et al.
# Submitted via: CDex 1.50
#
DISCID=6b104817
DTITLE=Ethel Waters - Ethel Waters 1931-1940
DYEAR=1998
DGENRE=Blues
TTITLE0=Georgia On My Mind
TTITLE1=Frankie And Johnnie
TTITLE2=Stop Myself From Worryin' Over You
TTITLE3=Jeepers Creepers
TTITLE4=Baby, What Else Can I Do?
TTITLE5=I Just Got A letter
TTITLE6=Cabin In The Sky
TTITLE7=Taking A Chance On Love
TTITLE8=Honey In The Honeycomb
TTITLE9=Love Turned The Light Out
TTITLE10=Old Man Harlem
TTITLE11=Down In My Soul
TTITLE12=Push-Out
TTITLE13=Y'Had It Comin' To You
TTITLE14=Harlem On My Mind
TTITLE15=Heat Wave
TTITLE16=Shadows On The Swanee
TTITLE17=Trade Mark
TTITLE18=Stormy Weather (Keeps Rainin' All The Time)
TTITLE19=I Can' Give You Anything But Love
TTITLE20=I Just Couldn't Take It, Baby
TTITLE21=Porgy
TTITLE22=Shine On, Harvest Moon
EXTD=YEAR: 1998
EXTT0=
EXTT1=
EXTT2=
EXTT3=
EXTT4=
EXTT5=
EXTT6=
EXTT7=
EXTT8=
EXTT9=
EXTT10=
EXTT11=
EXTT12=
EXTT13=
EXTT14=
EXTT15=
EXTT16=
EXTT17=
EXTT18=
EXTT19=
EXTT20=
EXTT21=
EXTT22=
PLAYORDER=
